<?xml version="1.0" encoding="iso-8859-1"?>
<!-- Generator: Adobe Illustrator 19.0.0, SVG Export Plug-In . SVG Version: 6.00 Build 0)  -->
<svg version="1.1" id="Layer_1" xmlns="http://www.w3.org/2000/svg" xmlns:xlink="http://www.w3.org/1999/xlink" x="0px" y="0px"
	 viewBox="0 0 511.999 511.999" style="enable-background:new 0 0 511.999 511.999;" xml:space="preserve">
<g>
	<g>
		<path d="M298.666,383.999h-128c-11.782,0-21.333,9.552-21.333,21.333c0,11.782,9.552,21.333,21.333,21.333h128
			c11.782,0,21.333-9.552,21.333-21.333C320,393.551,310.448,383.999,298.666,383.999z"/>
	</g>
</g>
<g>
	<g>
		<path d="M341.333,298.666H170.666c-11.782,0-21.333,9.552-21.333,21.333s9.552,21.333,21.333,21.333h170.667
			c11.782,0,21.333-9.552,21.333-21.333S353.115,298.666,341.333,298.666z"/>
	</g>
</g>
<g>
	<g>
		<path d="M298.666,213.333h-128c-11.782,0-21.333,9.552-21.333,21.333s9.552,21.333,21.333,21.333h128
			c11.782,0,21.333-9.552,21.333-21.333S310.448,213.333,298.666,213.333z"/>
	</g>
</g>
<g>
	<g>
		<path d="M341.333,127.999H170.666c-11.782,0-21.333,9.552-21.333,21.333c0,11.782,9.552,21.333,21.333,21.333h170.667
			c11.782,0,21.333-9.552,21.333-21.333C362.666,137.551,353.115,127.999,341.333,127.999z"/>
	</g>
</g>
<g>
	<g>
		<path d="M434.83,1.624c-7.967-3.3-17.148-1.476-23.249,4.625L384,33.83L356.419,6.249c-8.33-8.331-21.838-8.331-30.17,0
			L298.666,33.83L271.085,6.249c-8.33-8.331-21.838-8.331-30.17,0L213.333,33.83L185.752,6.249c-8.33-8.331-21.838-8.331-30.17,0
			L128,33.83L100.417,6.249C94.316,0.146,85.14-1.676,77.168,1.624C69.196,4.926,64,12.704,64,21.333v469.333
			c0,11.782,9.552,21.333,21.333,21.333h341.333c11.782,0,21.333-9.552,21.333-21.333V21.333C448,12.704,442.803,4.926,434.83,1.624
			z M405.333,469.333H106.666V72.837l6.249,6.248c8.33,8.331,21.838,8.331,30.17,0l27.581-27.581l27.583,27.581
			c8.33,8.331,21.838,8.331,30.17,0L256,51.504l27.583,27.581c8.33,8.331,21.838,8.331,30.17,0l27.581-27.581l27.583,27.581
			c8.33,8.331,21.838,8.331,30.17,0l6.248-6.248V469.333z"/>
	</g>
</g>
<g>
</g>
<g>
</g>
<g>
</g>
<g>
</g>
<g>
</g>
<g>
</g>
<g>
</g>
<g>
</g>
<g>
</g>
<g>
</g>
<g>
</g>
<g>
</g>
<g>
</g>
<g>
</g>
<g>
</g>
</svg>
