<?xml version="1.0" encoding="utf-8"?>
<!-- Generator: Adobe Illustrator 16.0.0, SVG Export Plug-In . SVG Version: 6.00 Build 0)  -->
<!DOCTYPE svg PUBLIC "-//W3C//DTD SVG 1.0//EN" "http://www.w3.org/TR/2001/REC-SVG-20010904/DTD/svg10.dtd">
<svg version="1.0" id="Layer_1" xmlns="http://www.w3.org/2000/svg" xmlns:xlink="http://www.w3.org/1999/xlink" x="0px" y="0px"
	 width="100px" height="100px" viewBox="0 0 100 100" enable-background="new 0 0 100 100" xml:space="preserve">
<path d="M68.835,26.667c0.726-1.52,1.165-3.203,1.165-5C70,15.225,64.778,10,58.333,10c-3.268,0-6.214,1.354-8.333,3.519
	C47.881,11.354,44.935,10,41.667,10C35.222,10,30,15.225,30,21.667c0,1.797,0.439,3.48,1.165,5H10v20h6.667V90h66.666V46.667H90v-20
	H68.835z M46.667,83.333H23.333V46.667h23.334V83.333z M46.667,40h-30v-6.667h30V40z M46.667,26.667h-5c-2.758,0-5-2.243-5-5
	c0-2.757,2.242-5,5-5c2.757,0,5,2.243,5,5V26.667z M53.333,21.667c0-2.757,2.243-5,5-5c2.758,0,5,2.243,5,5c0,2.757-2.242,5-5,5h-5
	V21.667z M76.667,83.333H53.333V46.667h23.334V83.333z M83.333,40h-30v-6.667h30V40z"/>
</svg>
