<?xml version="1.0" encoding="iso-8859-1"?>
<!-- Generator: Adobe Illustrator 19.0.0, SVG Export Plug-In . SVG Version: 6.00 Build 0)  -->
<svg version="1.1" id="Layer_1" xmlns="http://www.w3.org/2000/svg" xmlns:xlink="http://www.w3.org/1999/xlink" x="0px" y="0px"
	 viewBox="0 0 512 512" style="enable-background:new 0 0 512 512;" xml:space="preserve">
<g>
	<g>
		<path d="M398.163,0h-35.273c-4.427,0-8.017,3.589-8.017,8.017c0,4.427,3.589,8.017,8.017,8.017h35.273
			c4.421,0,8.017,3.596,8.017,8.017v36.164H105.82V24.05c0-4.421,3.596-8.017,8.017-8.017h206.296c4.427,0,8.017-3.589,8.017-8.017
			c0-4.427-3.589-8.017-8.017-8.017H113.837c-13.262,0-24.05,10.788-24.05,24.05v274.706c0,4.427,3.589,8.017,8.017,8.017
			s8.017-3.589,8.017-8.017V76.247H406.18V435.04H105.82v-93.528c0-4.427-3.589-8.017-8.017-8.017s-8.017,3.589-8.017,8.017V487.95
			c0,13.262,10.788,24.05,24.05,24.05h284.326c13.262,0,24.05-10.788,24.05-24.05V24.05C422.213,10.788,411.425,0,398.163,0z
			 M406.18,487.95c0,4.421-3.596,8.017-8.017,8.017H113.837c-4.421,0-8.017-3.596-8.017-8.017v-36.877H406.18V487.95z"/>
	</g>
</g>
<g>
	<g>
		<path d="M268.827,461.762h-25.653c-4.427,0-8.017,3.589-8.017,8.017c0,4.427,3.589,8.017,8.017,8.017h25.653
			c4.427,0,8.017-3.589,8.017-8.017C276.843,465.351,273.254,461.762,268.827,461.762z"/>
	</g>
</g>
<g>
	<g>
		<path d="M379.577,153.801c-33.008-33.008-76.896-51.187-123.577-51.187s-90.568,18.179-123.577,51.187
			c-3.131,3.131-3.131,8.207,0,11.337c3.131,3.131,8.207,3.131,11.337,0c29.98-29.979,69.841-46.49,112.24-46.49
			s82.26,16.511,112.239,46.492c1.566,1.565,3.617,2.347,5.669,2.347C380.918,167.486,384.516,158.739,379.577,153.801z"/>
	</g>
</g>
<g>
	<g>
		<path d="M349.343,184.035C324.41,159.101,291.26,145.37,256,145.37s-68.41,13.731-93.344,38.664
			c-3.131,3.131-3.131,8.207,0,11.337c3.13,3.131,8.206,3.131,11.337,0c21.906-21.904,51.03-33.967,82.008-33.967
			s60.102,12.063,82.007,33.968c1.566,1.565,3.617,2.348,5.668,2.348C350.685,197.72,354.283,188.973,349.343,184.035z"/>
	</g>
</g>
<g>
	<g>
		<path d="M319.111,214.267C302.253,197.41,279.84,188.125,256,188.125s-46.253,9.284-63.111,26.142
			c-3.131,3.131-3.131,8.206,0,11.337c3.131,3.132,8.207,3.131,11.337,0c13.829-13.829,32.216-21.445,51.774-21.445
			s37.945,7.616,51.774,21.445c3.26,3.261,8.766,3.041,11.763-0.46C322.224,222.007,322.03,217.185,319.111,214.267z"/>
	</g>
</g>
<g>
	<g>
		<path d="M256,256.534c-13.851,0-25.119,11.268-25.119,25.119c0,13.851,11.268,25.119,25.119,25.119
			c13.851,0,25.119-11.268,25.119-25.119C281.119,267.803,269.851,256.534,256,256.534z M256,290.739
			c-5.01,0-9.086-4.076-9.086-9.086c0-5.01,4.076-9.086,9.086-9.086c5.01,0,9.086,4.076,9.086,9.086
			C265.086,286.663,261.01,290.739,256,290.739z"/>
	</g>
</g>
<g>
	<g>
		<path d="M388.543,393.353h-0.534v-9.62h0.534c4.427,0,8.017-3.589,8.017-8.017c0-4.427-3.589-8.017-8.017-8.017h-0.534v-9.086
			c0-4.427-3.589-8.017-8.017-8.017c-4.427,0-8.017,3.589-8.017,8.017v9.086h-9.62v-9.086c0-4.427-3.589-8.017-8.017-8.017
			s-8.017,3.589-8.017,8.017v9.086h-9.086c-0.181,0-0.357,0.015-0.534,0.027v-69.505h17.637c3.594,0,6.748-2.392,7.72-5.852
			c0.971-3.46-0.481-7.143-3.551-9.013l-98.338-59.858c-2.56-1.558-5.776-1.558-8.336,0l-98.338,59.858
			c-3.07,1.869-4.521,5.552-3.551,9.013c0.971,3.46,4.125,5.852,7.72,5.852h17.636v69.505c-0.177-0.012-0.354-0.027-0.534-0.027
			h-9.086v-9.086c0-4.427-3.589-8.017-8.017-8.017s-8.017,3.589-8.017,8.017v9.086h-9.62v-9.086c0-4.427-3.589-8.017-8.017-8.017
			c-4.427,0-8.017,3.589-8.017,8.017v9.086h-0.534c-4.427,0-8.017,3.589-8.017,8.017c0,4.427,3.589,8.017,8.017,8.017h0.534v9.62
			h-0.534c-4.427,0-8.017,3.589-8.017,8.017c0,4.427,3.589,8.017,8.017,8.017h265.086c4.427,0,8.017-3.589,8.017-8.017
			C396.56,396.942,392.97,393.353,388.543,393.353z M149.645,393.353h-9.62v-9.62h9.62V393.353z M175.299,393.353h-9.62v-9.62h9.086
			c0.181,0,0.357-0.015,0.534-0.027V393.353z M269.361,393.353h-26.722v-52.376h26.722V393.353z M320.668,290.204v103.149h-35.273
			V332.96c0-4.427-3.589-8.017-8.017-8.017h-42.756c-4.427,0-8.017,3.589-8.017,8.017v60.393h-35.273V290.205
			c0-3.607-2.383-6.658-5.66-7.664L256,239.731l70.328,42.808C323.051,283.545,320.668,286.596,320.668,290.204z M336.701,393.353
			v-9.647c0.177,0.012,0.354,0.027,0.534,0.027h9.086v9.086c0,0.181,0.015,0.357,0.027,0.534H336.701z M371.975,393.353h-9.647
			c0.012-0.177,0.027-0.354,0.027-0.534v-9.086h9.62V393.353z"/>
	</g>
</g>
<g>
</g>
<g>
</g>
<g>
</g>
<g>
</g>
<g>
</g>
<g>
</g>
<g>
</g>
<g>
</g>
<g>
</g>
<g>
</g>
<g>
</g>
<g>
</g>
<g>
</g>
<g>
</g>
<g>
</g>
</svg>
