<?xml version="1.0" encoding="iso-8859-1"?>
<!-- Generator: Adobe Illustrator 19.0.0, SVG Export Plug-In . SVG Version: 6.00 Build 0)  -->
<svg version="1.1" id="Layer_1" xmlns="http://www.w3.org/2000/svg" xmlns:xlink="http://www.w3.org/1999/xlink" x="0px" y="0px"
	 viewBox="0 0 512 512" style="enable-background:new 0 0 512 512;" xml:space="preserve">
<g>
	<g>
		<circle cx="349.62" cy="419.404" r="8.17"/>
	</g>
</g>
<g>
	<g>
		<circle cx="316.939" cy="452.085" r="8.17"/>
	</g>
</g>
<g>
	<g>
		<circle cx="53.444" cy="288.681" r="8.17"/>
	</g>
</g>
<g>
	<g>
		<path d="M487.878,202.54c-13.107-25.901-31.552-49.057-54.857-68.881v-19.429c12.238-1.359,21.787-11.762,21.787-24.356
			c0-13.515-10.996-24.511-24.511-24.511h-2.723v-8.17c0-13.515-10.996-24.511-24.511-24.511h-32.681
			c-2.864,0-5.614,0.499-8.17,1.405v-9.577C362.213,10.996,351.217,0,337.702,0h-32.681c-6.273,0-12,2.372-16.34,6.262
			C284.341,2.372,278.613,0,272.34,0H239.66c-6.273,0-12,2.372-16.34,6.262C218.979,2.372,213.251,0,206.979,0h-32.681
			c-13.516,0-24.511,10.996-24.511,24.511v9.575c-2.557-0.907-5.306-1.405-8.17-1.405h-32.681
			c-13.516,0-24.511,10.996-24.511,24.511v8.17h-2.723c-13.516,0-24.511,10.996-24.511,24.511c0,12.594,9.549,22.996,21.787,24.356
			v19.429c-23.305,19.824-41.75,42.981-54.857,68.881C9.923,230.597,2.723,260.495,2.723,291.404
			c0,59.147,26.497,114.684,74.609,156.382c6.559,5.684,13.422,11.004,20.541,15.977l-12.927,34.475
			c-1.585,4.226,0.557,8.935,4.781,10.519c0.946,0.354,1.914,0.522,2.867,0.522c3.308,0,6.422-2.023,7.651-5.303l11.656-31.083
			C153.925,498.307,203.764,512,256,512s102.075-13.693,144.099-39.107l11.656,31.083c1.23,3.28,4.342,5.303,7.651,5.303
			c0.953,0,1.923-0.168,2.868-0.522c4.225-1.584,6.365-6.293,4.781-10.519l-12.927-34.475c7.119-4.972,13.982-10.292,20.541-15.975
			c48.112-41.7,74.608-97.236,74.608-156.383C509.277,260.495,502.078,230.597,487.878,202.54z M362.213,57.192
			c0-4.506,3.665-8.17,8.17-8.17h32.681c4.506,0,8.17,3.665,8.17,8.17v8.17h-49.021V57.192z M296.851,24.511
			c0-4.506,3.665-8.17,8.17-8.17h32.681c4.506,0,8.17,3.665,8.17,8.17v8.17h-49.021V24.511z M296.851,49.021h49.021v16.34h-49.021
			V49.021z M231.489,24.511c0-4.506,3.665-8.17,8.17-8.17h32.681c4.506,0,8.17,3.665,8.17,8.17v8.17h-49.021V24.511z
			 M231.489,49.021h49.021v16.34h-49.021V49.021z M166.128,24.511c0-4.506,3.665-8.17,8.17-8.17h32.681
			c4.506,0,8.17,3.665,8.17,8.17v8.17h-24.511c-4.512,0-8.17,3.657-8.17,8.17s3.658,8.17,8.17,8.17h24.511v16.34h-49.021V24.511z
			 M100.766,57.192c0-4.506,3.665-8.17,8.17-8.17h32.681c4.506,0,8.17,3.665,8.17,8.17v8.17h-49.021V57.192z M408.157,447.843
			l-0.244-0.65c-1.584-4.225-6.291-6.363-10.519-4.781c-4.225,1.584-6.365,6.293-4.781,10.519l1.602,4.272
			C355.286,481.389,307.542,495.66,256,495.66s-99.286-14.271-138.215-38.456l1.602-4.272c1.585-4.226-0.557-8.935-4.781-10.519
			c-4.226-1.584-8.935,0.556-10.519,4.781l-0.244,0.65c-51.794-37.499-84.78-93.707-84.78-156.44
			c0-56.257,26.025-108.685,73.281-147.627c1.883-1.552,2.974-3.865,2.974-6.305v-23.089h19.064c4.512,0,8.17-3.657,8.17-8.17
			c0-4.513-3.658-8.17-8.17-8.17H81.702c-4.506,0-8.17-3.665-8.17-8.17c0-4.506,3.665-8.17,8.17-8.17h348.596
			c4.506,0,8.17,3.665,8.17,8.17c0,4.506-3.665,8.17-8.17,8.17H147.064c-4.512,0-8.17,3.657-8.17,8.17c0,4.513,3.658,8.17,8.17,8.17
			h269.617v23.089c0,2.44,1.09,4.753,2.974,6.305c47.255,38.941,73.281,91.37,73.281,147.627
			C492.936,354.137,459.95,410.345,408.157,447.843z"/>
	</g>
</g>
<g>
</g>
<g>
</g>
<g>
</g>
<g>
</g>
<g>
</g>
<g>
</g>
<g>
</g>
<g>
</g>
<g>
</g>
<g>
</g>
<g>
</g>
<g>
</g>
<g>
</g>
<g>
</g>
<g>
</g>
</svg>
