<svg xmlns="http://www.w3.org/2000/svg" viewBox="0 0 256 256"><defs><style>.cls-1{fill:#1d384d;}</style></defs><title>funds transfer</title><g id="icons_without_caption" data-name="icons without caption"><g id="FUNDS_TRANSFER" data-name="FUNDS TRANSFER"><path class="cls-1" d="M129.62,161a32.89,32.89,0,1,1,4.51-65.46,32.89,32.89,0,0,1,28,37.12A33,33,0,0,1,129.62,161Zm-.08-61.78a28.89,28.89,0,0,0-4,57.5,29.29,29.29,0,0,0,4,.28,29,29,0,0,0,28.57-24.9,28.89,28.89,0,0,0-24.61-32.6A29.31,29.31,0,0,0,129.54,99.21Z"/><path class="cls-1" d="M139.83,134.84c0,4.5-3.17,7.67-8.53,8.1v5.34h-3V142.9a15.38,15.38,0,0,1-9-4.33l2.3-2.76a12.53,12.53,0,0,0,8.51,3.66c3.25,0,5.66-1.62,5.66-4.39,0-3.17-2.54-4.22-6.61-5.49-4.82-1.55-9.22-3.06-9.22-8.31,0-4.29,3-7.54,8.38-7.8V107.9h2.95v5.77a18,18,0,0,1,7.52,3.21l-2.22,2.73a13.7,13.7,0,0,0-7.43-2.61c-3.08,0-5.23,1.44-5.23,4,0,2.76,2.67,3.77,6.35,5,5.43,1.72,9.54,3.17,9.54,8.83Z"/><path class="cls-1" d="M74.14,136.33V113.22A54.88,54.88,0,0,1,129,58.4h41.86V37.47l29,35.83-29,35.83V86.78h-41.6A50.87,50.87,0,0,0,82.8,116.9ZM129,62.4a50.88,50.88,0,0,0-50.82,50.82v4.32l1-2.26a54.88,54.88,0,0,1,50.07-32.5h45.6v15L194.63,73.3,174.82,48.79V62.4Z"/><path class="cls-1" d="M85.18,218.53l-29-35.83,29-35.83v22.36h41.6A50.87,50.87,0,0,0,173.2,139.1l8.66-19.42v23.11A54.88,54.88,0,0,1,127,197.61H85.18ZM61.37,182.7l19.81,24.52V193.61H127a50.88,50.88,0,0,0,50.82-50.82v-4.31l-1,2.26a54.88,54.88,0,0,1-50.07,32.5H81.18v-15Z"/></g></g></svg>